<?xml version="1.0" standalone="no"?>
<!DOCTYPE svg PUBLIC "-//W3C//DTD SVG 20010904//EN"
 "http://www.w3.org/TR/2001/REC-SVG-20010904/DTD/svg10.dtd">
<svg version="1.0" xmlns="http://www.w3.org/2000/svg"
 width="535.000000pt" height="535.000000pt" viewBox="0 0 535.000000 535.000000"
 preserveAspectRatio="xMidYMid meet">
<metadata>
Created by potrace 1.14, written by Peter Selinger 2001-2017
</metadata>
<g transform="translate(0.000000,535.000000) scale(0.100000,-0.100000)"
fill="#000000" stroke="none">
<path d="M1510 5334 c-115 -44 -165 -110 -165 -219 0 -92 30 -144 109 -190 84
-49 191 -36 268 32 9 8 27 36 39 61 52 111 10 237 -101 301 -25 14 -125 24
-150 15z"/>
<path d="M2060 5333 c-91 -30 -170 -131 -170 -218 0 -30 30 -115 41 -115 5 0
9 -5 9 -10 0 -17 31 -46 75 -71 31 -17 55 -22 109 -22 37 0 71 4 75 9 3 5 22
17 41 27 21 10 48 38 65 65 26 42 29 56 29 126 0 52 -5 81 -12 84 -7 2 -12 10
-12 18 0 21 -59 73 -107 95 -39 18 -108 24 -143 12z"/>
<path d="M2585 5321 c-89 -40 -129 -105 -129 -206 0 -55 4 -78 22 -106 24 -39
79 -89 98 -89 7 0 14 -5 16 -12 7 -19 127 -16 169 5 56 26 105 81 123 136 20
62 20 70 0 131 -41 126 -184 194 -299 141z"/>
<path d="M935 4770 c-94 -37 -136 -92 -143 -190 -7 -97 25 -157 113 -215 23
-15 48 -19 106 -20 69 0 80 3 115 30 21 16 42 35 47 41 4 7 14 20 23 28 26 27
40 119 26 172 -14 52 -60 123 -79 124 -7 0 -13 3 -13 8 0 10 -92 42 -121 41
-13 0 -46 -9 -74 -19z"/>
<path d="M3705 4772 c-147 -60 -193 -245 -88 -357 53 -57 81 -69 163 -69 58 0
82 4 105 19 91 60 119 114 113 219 -2 42 -9 71 -16 74 -7 2 -12 9 -12 15 0 11
-32 48 -62 72 -23 19 -103 45 -133 44 -17 -1 -48 -8 -70 -17z"/>
<path d="M1503 4223 c-17 -2 -37 -11 -43 -19 -7 -8 -17 -14 -23 -14 -15 0 -57
-51 -78 -95 -53 -112 14 -257 139 -299 57 -20 71 -20 133 0 55 18 110 67 136
122 32 68 16 176 -36 236 -46 54 -138 82 -228 69z"/>
<path d="M2066 4223 c-74 -12 -144 -85 -167 -175 -26 -97 46 -218 150 -252 61
-20 70 -20 130 0 104 34 156 106 155 214 -1 88 -37 152 -110 192 -33 18 -112
29 -158 21z"/>
<path d="M3185 4226 c-5 -3 -22 -7 -38 -10 -32 -7 -117 -87 -117 -110 0 -9 -4
-16 -10 -16 -16 0 -12 -143 5 -178 35 -68 131 -132 200 -132 73 0 175 70 208
143 43 95 2 219 -94 279 -25 16 -132 32 -154 24z"/>
<path d="M4278 4221 c-107 -22 -183 -147 -157 -259 19 -86 66 -137 151 -167
55 -19 68 -19 131 2 88 29 157 121 157 209 0 71 -57 167 -119 198 -34 18 -116
26 -163 17z"/>
<path d="M2590 3660 c0 -5 -6 -10 -13 -10 -20 0 -75 -49 -100 -89 -28 -46 -31
-179 -4 -209 9 -10 17 -22 17 -26 0 -17 58 -63 98 -79 88 -35 176 -15 244 56
33 35 68 113 68 152 0 27 -32 115 -41 115 -5 0 -9 6 -9 13 0 13 -47 53 -87 74
-30 15 -173 18 -173 3z"/>
<path d="M3685 3655 c-40 -17 -97 -81 -112 -126 -15 -42 -17 -135 -3 -144 6
-3 10 -15 10 -25 0 -27 64 -88 116 -110 112 -48 236 1 288 114 28 60 19 159
-19 213 -47 65 -102 93 -183 92 -37 0 -80 -7 -97 -14z"/>
<path d="M912 3098 c-23 -11 -53 -34 -67 -52 -14 -17 -31 -38 -38 -46 -7 -9
-12 -47 -12 -100 0 -79 2 -90 28 -123 15 -20 44 -49 64 -64 34 -26 43 -28 126
-28 63 0 92 4 95 13 2 6 10 12 17 12 21 0 81 76 93 119 26 86 7 166 -54 225
-69 67 -169 84 -252 44z"/>
<path d="M1495 3110 c-3 -5 -15 -10 -26 -10 -10 0 -19 -4 -19 -10 0 -5 -5 -10
-10 -10 -18 0 -60 -52 -82 -99 -23 -50 -21 -135 4 -181 39 -75 116 -120 203
-120 65 0 108 17 154 62 62 61 83 158 51 238 -18 46 -86 112 -131 128 -43 14
-135 16 -144 2z"/>
<path d="M2025 3099 c-73 -36 -135 -127 -135 -199 0 -27 28 -107 45 -128 24
-30 61 -62 72 -62 6 0 13 -5 15 -12 3 -7 32 -14 74 -16 105 -6 159 22 219 113
15 23 19 48 20 105 0 70 -3 79 -34 123 -19 26 -38 47 -42 47 -4 0 -14 6 -21
13 -43 41 -147 49 -213 16z"/>
<path d="M3151 2665 c-41 -15 -103 -72 -125 -116 -21 -43 -21 -146 1 -189 41
-84 103 -121 197 -121 102 0 166 40 206 129 40 87 19 178 -55 247 -66 61 -146
79 -224 50z"/>
<path d="M3687 2656 c-56 -28 -83 -56 -108 -114 -22 -50 -24 -110 -6 -161 19
-55 60 -101 114 -126 51 -24 203 -20 203 6 0 5 5 9 11 9 17 0 63 52 82 92 22
46 22 139 1 184 -26 54 -90 114 -123 114 -11 0 -23 5 -26 10 -11 18 -98 10
-148 -14z"/>
<path d="M1467 2100 c-110 -60 -156 -181 -108 -285 20 -45 62 -95 80 -95 6 0
11 -4 11 -8 0 -27 130 -41 191 -20 44 15 107 74 126 118 21 49 22 137 1 181
-20 40 -75 99 -94 99 -7 0 -14 5 -16 11 -2 7 -35 14 -78 16 -63 4 -81 1 -113
-17z"/>
<path d="M2610 2114 c-60 -22 -100 -54 -135 -108 -28 -43 -26 -168 4 -218 57
-95 181 -134 283 -88 56 25 96 62 112 105 25 67 28 95 15 145 -14 54 -78 140
-104 140 -7 0 -15 5 -17 10 -4 12 -134 23 -158 14z"/>
<path d="M4264 2112 c-101 -34 -167 -152 -144 -258 17 -75 45 -111 116 -149
134 -71 296 13 321 169 7 43 -14 123 -39 150 -10 11 -18 23 -18 27 0 3 -19 19
-42 34 -33 22 -56 29 -108 31 -36 2 -74 0 -86 -4z"/>
<path d="M925 1553 c-43 -18 -78 -49 -110 -98 -29 -43 -29 -177 0 -220 48 -73
114 -110 197 -109 147 2 242 129 209 278 -7 31 -17 56 -22 56 -5 0 -9 5 -9 10
0 17 -52 61 -95 81 -49 23 -117 23 -170 2z"/>
<path d="M2035 1553 c-74 -31 -145 -133 -145 -208 0 -41 32 -114 64 -148 50
-53 91 -71 166 -71 82 1 143 35 185 103 25 41 29 55 29 125 0 52 -5 81 -12 84
-7 2 -12 9 -12 16 0 17 -56 73 -93 92 -48 24 -134 27 -182 7z"/>
<path d="M2585 1550 c-92 -44 -129 -104 -129 -206 0 -62 3 -77 28 -115 48 -73
97 -100 181 -102 102 -3 188 57 219 152 20 62 20 70 0 131 -41 127 -186 194
-299 140z"/>
<path d="M1493 1003 c-54 -19 -115 -77 -136 -131 -41 -104 -4 -210 98 -277 41
-27 183 -28 210 -2 9 9 20 17 25 17 14 0 70 63 70 80 0 9 5 21 12 28 16 16 13
121 -5 162 -19 41 -60 90 -76 90 -6 0 -11 4 -11 8 0 9 -104 43 -128 41 -9 -1
-36 -8 -59 -16z"/>
<path d="M2606 1004 c-55 -20 -93 -50 -123 -97 -22 -35 -26 -54 -27 -112 0
-92 19 -131 98 -190 37 -28 45 -30 125 -29 56 0 86 4 89 12 2 7 10 12 17 12
17 0 95 88 95 108 0 9 5 30 12 48 9 26 9 42 -1 76 -31 104 -63 138 -162 172
-52 18 -71 18 -123 0z"/>
<path d="M4256 995 c-80 -33 -117 -76 -136 -159 -29 -131 77 -266 210 -266 72
0 104 14 155 64 52 51 75 101 75 160 0 91 -72 184 -163 210 -70 20 -71 20
-141 -9z"/>
<path d="M3185 453 c-34 -4 -95 -33 -95 -45 0 -5 -7 -8 -15 -8 -8 0 -15 -7
-15 -15 0 -8 -4 -15 -10 -15 -5 0 -12 -11 -16 -25 -3 -14 -10 -25 -15 -25 -16
0 -10 -144 6 -178 37 -73 129 -132 207 -132 40 0 129 44 159 77 60 69 74 155
39 237 -21 49 -72 106 -95 106 -7 0 -15 4 -17 8 -4 10 -90 20 -133 15z"/>
<path d="M3728 450 c-20 -4 -47 -13 -60 -22 -39 -26 -88 -81 -88 -99 0 -10 -4
-21 -10 -24 -17 -10 -12 -118 8 -156 22 -46 57 -89 71 -89 6 0 11 -4 11 -9 0
-24 161 -54 174 -32 3 4 18 11 33 14 34 7 95 66 117 112 21 44 20 138 -1 183
-18 40 -53 78 -93 103 -30 19 -111 29 -162 19z"/>
</g>
</svg>
